<svg width="64" height="52" viewBox="0 0 64 52" fill="none" xmlns="http://www.w3.org/2000/svg">
<g filter="url(#filter0_d_316_321)">
<mask id="path-1-inside-1_316_321" fill="white">
<path d="M53.156 25.2754C51.1053 25.2861 49.3293 25.7781 47.8413 26.5127C47.2973 25.4261 46.7453 24.4701 46.6533 23.7594C46.5453 22.9301 46.42 22.4341 46.5507 21.4461C46.6813 20.4581 47.2533 19.0581 47.2453 18.9527C47.2373 18.8474 47.1173 18.3447 45.9347 18.3354C44.752 18.3274 43.74 18.5634 43.6213 18.8754C43.5027 19.1874 43.2747 19.8901 43.1333 20.6234C42.9267 21.6954 40.772 25.5207 39.5493 27.5207C39.1493 26.7394 38.8093 26.0514 38.7387 25.5074C38.6307 24.6781 38.5053 24.1821 38.636 23.1941C38.7667 22.2061 39.3387 20.8061 39.3307 20.7007C39.3227 20.5954 39.2027 20.0927 38.02 20.0834C36.8373 20.0754 35.8253 20.3114 35.7067 20.6234C35.588 20.9354 35.46 21.6647 35.2187 22.3714C34.976 23.0767 32.1133 29.4567 31.3627 31.1114C30.98 31.9541 30.648 32.6314 30.4133 33.0927L30.412 33.0901C30.412 33.0901 30.3973 33.1207 30.3733 33.1727C30.172 33.5661 30.0533 33.7834 30.0533 33.7834C30.0533 33.7834 30.0547 33.7861 30.0573 33.7914C29.8973 34.0807 29.7267 34.3487 29.6427 34.3487C29.584 34.3487 29.4653 33.5794 29.668 32.5234C30.0947 30.3101 31.1173 26.8594 31.108 26.7394C31.1027 26.6781 31.2987 26.0767 30.44 25.7621C29.6053 25.4567 29.308 25.9661 29.232 25.9674C29.1587 25.9687 29.104 26.1474 29.104 26.1474C29.104 26.1474 30.0333 22.2661 27.3307 22.2661C25.64 22.2661 23.2987 24.1154 22.1453 25.7914C21.4173 26.1887 19.8587 27.0394 18.2067 27.9474C17.572 28.2967 16.924 28.6527 16.3093 28.9914C16.268 28.9447 16.2253 28.8994 16.1827 28.8527C12.904 25.3554 6.84535 22.8821 7.10135 18.1794C7.19468 16.4701 7.78935 11.9687 18.7453 6.51006C27.72 2.03806 34.9053 3.26872 36.1467 5.99539C37.92 9.89272 32.3067 17.1341 22.9867 18.1794C19.436 18.5781 17.5653 17.2007 17.1 16.6887C16.6107 16.1487 16.5373 16.1247 16.3547 16.2261C16.0573 16.3914 16.2453 16.8674 16.3547 17.1514C16.6333 17.8754 17.7747 19.1594 19.7213 19.7994C21.4347 20.3621 25.604 20.6701 30.6453 18.7194C36.2933 16.5354 40.7027 10.4581 39.4067 5.37939C38.0893 0.214056 29.524 -1.48461 21.4173 1.39539C16.5867 3.11006 11.364 5.80072 7.60801 9.31272C3.14268 13.4887 2.43068 17.1247 2.72401 18.6434C3.76668 24.0407 11.2053 27.5554 14.184 30.1594C14.0373 30.2407 13.8987 30.3167 13.7733 30.3861C12.28 31.1247 6.60935 34.0927 5.19068 37.2274C3.58135 40.7834 5.44668 43.3354 6.68135 43.6794C10.5067 44.7434 14.432 42.8287 16.5427 39.6821C18.652 36.5367 18.3947 32.4394 17.4267 30.5701C17.4147 30.5474 17.4013 30.5247 17.3893 30.5007C17.7747 30.2727 18.168 30.0407 18.5573 29.8114C19.3173 29.3647 20.064 28.9487 20.7107 28.5967C20.348 29.5887 20.0827 30.7794 19.9453 32.4981C19.7827 34.5167 20.6107 37.1261 21.6933 38.1527C22.1707 38.6047 22.744 38.6154 23.1067 38.6154C24.3667 38.6154 24.9413 37.5674 25.5747 36.3274C26.3507 34.8074 27.04 33.0367 27.04 33.0367C27.04 33.0367 26.176 37.8181 28.5307 37.8181C29.3893 37.8181 30.252 36.7047 30.6373 36.1381C30.6387 36.1447 30.6387 36.1474 30.6387 36.1474C30.6387 36.1474 30.6613 36.1101 30.7053 36.0367C30.7947 35.9007 30.8453 35.8141 30.8453 35.8141C30.8453 35.8141 30.8467 35.8047 30.8493 35.7887C31.1947 35.1901 31.96 33.8247 33.1067 31.5727C34.5893 28.6634 36.0107 25.0181 36.0107 25.0181C36.0107 25.0181 36.1427 25.9087 36.576 27.3834C36.8307 28.2501 37.372 29.2087 37.8 30.1287C37.456 30.6061 37.2453 30.8794 37.2453 30.8794C37.2453 30.8794 37.2467 30.8847 37.2507 30.8941C36.976 31.2594 36.668 31.6527 36.3453 32.0367C35.1747 33.4301 33.7813 35.0221 33.5947 35.4807C33.3747 36.0221 33.4267 36.4194 33.852 36.7407C34.1627 36.9741 34.7147 37.0114 35.292 36.9727C36.344 36.9021 37.0827 36.6407 37.448 36.4821C38.0173 36.2807 38.68 35.9647 39.3013 35.5074C40.4493 34.6634 41.1413 33.4567 41.0747 31.8567C41.0373 30.9754 40.7573 30.1021 40.4013 29.2781C40.5053 29.1287 40.6093 28.9767 40.7147 28.8247C42.524 26.1794 43.928 23.2727 43.928 23.2727C43.928 23.2727 44.06 24.1634 44.4933 25.6381C44.712 26.3834 45.1453 27.1981 45.5347 27.9954C43.8333 29.3781 42.7787 30.9847 42.412 32.0381C41.7347 33.9874 42.2653 34.8701 43.26 35.0714C43.7107 35.1621 44.348 34.9554 44.8267 34.7527C45.4227 34.5554 46.1387 34.2261 46.808 33.7341C47.956 32.8901 49.06 31.7087 48.9933 30.1101C48.9627 29.3821 48.7653 28.6594 48.4973 27.9661C49.94 27.3647 51.8067 27.0314 54.1853 27.3087C59.288 27.9047 60.288 31.0901 60.0973 32.4234C59.9053 33.7567 58.836 34.4901 58.4773 34.7114C58.12 34.9327 58.0107 35.0101 58.04 35.1741C58.084 35.4127 58.2493 35.4047 58.5547 35.3527C58.9747 35.2821 61.2333 34.2687 61.3307 31.8074C61.452 28.6794 58.4587 25.2474 53.156 25.2754ZM13.8267 38.5341C12.136 40.3781 9.77601 41.0741 8.76268 40.4874C7.66935 39.8541 8.10268 37.1394 10.176 35.1821C11.44 33.9901 13.072 32.8914 14.1547 32.2154C14.4013 32.0674 14.7627 31.8501 15.2027 31.5861C15.276 31.5447 15.3173 31.5221 15.3173 31.5221L15.316 31.5194C15.4013 31.4687 15.488 31.4167 15.5773 31.3621C16.3333 34.1474 15.6013 36.5994 13.8267 38.5341ZM26.14 30.1647C25.552 31.5994 24.32 35.2714 23.5693 35.0741C22.9253 34.9047 22.5333 32.1141 23.4413 29.3674C23.8973 27.9847 24.8733 26.3327 25.4467 25.6914C26.3693 24.6594 27.3853 24.3221 27.632 24.7407C27.9453 25.2741 26.5093 29.2647 26.14 30.1647ZM36.312 35.0181C36.0627 35.1487 35.8333 35.2301 35.728 35.1674C35.6493 35.1207 35.8307 34.9487 35.8307 34.9487C35.8307 34.9487 37.1027 33.5794 37.604 32.9567C37.896 32.5941 38.2333 32.1634 38.6013 31.6834C38.604 31.7314 38.6053 31.7794 38.6053 31.8261C38.6027 33.4661 37.0187 34.5727 36.312 35.0181ZM44.148 33.2314C43.9613 33.0994 43.9933 32.6714 44.6053 31.3367C44.8453 30.8127 45.3947 29.9314 46.3467 29.0887C46.4573 29.4354 46.524 29.7674 46.5227 30.0767C46.5107 32.1407 45.0387 32.9114 44.148 33.2314Z"/>
</mask>
<path d="M53.156 25.2754C51.1053 25.2861 49.3293 25.7781 47.8413 26.5127C47.2973 25.4261 46.7453 24.4701 46.6533 23.7594C46.5453 22.9301 46.42 22.4341 46.5507 21.4461C46.6813 20.4581 47.2533 19.0581 47.2453 18.9527C47.2373 18.8474 47.1173 18.3447 45.9347 18.3354C44.752 18.3274 43.74 18.5634 43.6213 18.8754C43.5027 19.1874 43.2747 19.8901 43.1333 20.6234C42.9267 21.6954 40.772 25.5207 39.5493 27.5207C39.1493 26.7394 38.8093 26.0514 38.7387 25.5074C38.6307 24.6781 38.5053 24.1821 38.636 23.1941C38.7667 22.2061 39.3387 20.8061 39.3307 20.7007C39.3227 20.5954 39.2027 20.0927 38.02 20.0834C36.8373 20.0754 35.8253 20.3114 35.7067 20.6234C35.588 20.9354 35.46 21.6647 35.2187 22.3714C34.976 23.0767 32.1133 29.4567 31.3627 31.1114C30.98 31.9541 30.648 32.6314 30.4133 33.0927L30.412 33.0901C30.412 33.0901 30.3973 33.1207 30.3733 33.1727C30.172 33.5661 30.0533 33.7834 30.0533 33.7834C30.0533 33.7834 30.0547 33.7861 30.0573 33.7914C29.8973 34.0807 29.7267 34.3487 29.6427 34.3487C29.584 34.3487 29.4653 33.5794 29.668 32.5234C30.0947 30.3101 31.1173 26.8594 31.108 26.7394C31.1027 26.6781 31.2987 26.0767 30.44 25.7621C29.6053 25.4567 29.308 25.9661 29.232 25.9674C29.1587 25.9687 29.104 26.1474 29.104 26.1474C29.104 26.1474 30.0333 22.2661 27.3307 22.2661C25.64 22.2661 23.2987 24.1154 22.1453 25.7914C21.4173 26.1887 19.8587 27.0394 18.2067 27.9474C17.572 28.2967 16.924 28.6527 16.3093 28.9914C16.268 28.9447 16.2253 28.8994 16.1827 28.8527C12.904 25.3554 6.84535 22.8821 7.10135 18.1794C7.19468 16.4701 7.78935 11.9687 18.7453 6.51006C27.72 2.03806 34.9053 3.26872 36.1467 5.99539C37.92 9.89272 32.3067 17.1341 22.9867 18.1794C19.436 18.5781 17.5653 17.2007 17.1 16.6887C16.6107 16.1487 16.5373 16.1247 16.3547 16.2261C16.0573 16.3914 16.2453 16.8674 16.3547 17.1514C16.6333 17.8754 17.7747 19.1594 19.7213 19.7994C21.4347 20.3621 25.604 20.6701 30.6453 18.7194C36.2933 16.5354 40.7027 10.4581 39.4067 5.37939C38.0893 0.214056 29.524 -1.48461 21.4173 1.39539C16.5867 3.11006 11.364 5.80072 7.60801 9.31272C3.14268 13.4887 2.43068 17.1247 2.72401 18.6434C3.76668 24.0407 11.2053 27.5554 14.184 30.1594C14.0373 30.2407 13.8987 30.3167 13.7733 30.3861C12.28 31.1247 6.60935 34.0927 5.19068 37.2274C3.58135 40.7834 5.44668 43.3354 6.68135 43.6794C10.5067 44.7434 14.432 42.8287 16.5427 39.6821C18.652 36.5367 18.3947 32.4394 17.4267 30.5701C17.4147 30.5474 17.4013 30.5247 17.3893 30.5007C17.7747 30.2727 18.168 30.0407 18.5573 29.8114C19.3173 29.3647 20.064 28.9487 20.7107 28.5967C20.348 29.5887 20.0827 30.7794 19.9453 32.4981C19.7827 34.5167 20.6107 37.1261 21.6933 38.1527C22.1707 38.6047 22.744 38.6154 23.1067 38.6154C24.3667 38.6154 24.9413 37.5674 25.5747 36.3274C26.3507 34.8074 27.04 33.0367 27.04 33.0367C27.04 33.0367 26.176 37.8181 28.5307 37.8181C29.3893 37.8181 30.252 36.7047 30.6373 36.1381C30.6387 36.1447 30.6387 36.1474 30.6387 36.1474C30.6387 36.1474 30.6613 36.1101 30.7053 36.0367C30.7947 35.9007 30.8453 35.8141 30.8453 35.8141C30.8453 35.8141 30.8467 35.8047 30.8493 35.7887C31.1947 35.1901 31.96 33.8247 33.1067 31.5727C34.5893 28.6634 36.0107 25.0181 36.0107 25.0181C36.0107 25.0181 36.1427 25.9087 36.576 27.3834C36.8307 28.2501 37.372 29.2087 37.8 30.1287C37.456 30.6061 37.2453 30.8794 37.2453 30.8794C37.2453 30.8794 37.2467 30.8847 37.2507 30.8941C36.976 31.2594 36.668 31.6527 36.3453 32.0367C35.1747 33.4301 33.7813 35.0221 33.5947 35.4807C33.3747 36.0221 33.4267 36.4194 33.852 36.7407C34.1627 36.9741 34.7147 37.0114 35.292 36.9727C36.344 36.9021 37.0827 36.6407 37.448 36.4821C38.0173 36.2807 38.68 35.9647 39.3013 35.5074C40.4493 34.6634 41.1413 33.4567 41.0747 31.8567C41.0373 30.9754 40.7573 30.1021 40.4013 29.2781C40.5053 29.1287 40.6093 28.9767 40.7147 28.8247C42.524 26.1794 43.928 23.2727 43.928 23.2727C43.928 23.2727 44.06 24.1634 44.4933 25.6381C44.712 26.3834 45.1453 27.1981 45.5347 27.9954C43.8333 29.3781 42.7787 30.9847 42.412 32.0381C41.7347 33.9874 42.2653 34.8701 43.26 35.0714C43.7107 35.1621 44.348 34.9554 44.8267 34.7527C45.4227 34.5554 46.1387 34.2261 46.808 33.7341C47.956 32.8901 49.06 31.7087 48.9933 30.1101C48.9627 29.3821 48.7653 28.6594 48.4973 27.9661C49.94 27.3647 51.8067 27.0314 54.1853 27.3087C59.288 27.9047 60.288 31.0901 60.0973 32.4234C59.9053 33.7567 58.836 34.4901 58.4773 34.7114C58.12 34.9327 58.0107 35.0101 58.04 35.1741C58.084 35.4127 58.2493 35.4047 58.5547 35.3527C58.9747 35.2821 61.2333 34.2687 61.3307 31.8074C61.452 28.6794 58.4587 25.2474 53.156 25.2754ZM13.8267 38.5341C12.136 40.3781 9.77601 41.0741 8.76268 40.4874C7.66935 39.8541 8.10268 37.1394 10.176 35.1821C11.44 33.9901 13.072 32.8914 14.1547 32.2154C14.4013 32.0674 14.7627 31.8501 15.2027 31.5861C15.276 31.5447 15.3173 31.5221 15.3173 31.5221L15.316 31.5194C15.4013 31.4687 15.488 31.4167 15.5773 31.3621C16.3333 34.1474 15.6013 36.5994 13.8267 38.5341ZM26.14 30.1647C25.552 31.5994 24.32 35.2714 23.5693 35.0741C22.9253 34.9047 22.5333 32.1141 23.4413 29.3674C23.8973 27.9847 24.8733 26.3327 25.4467 25.6914C26.3693 24.6594 27.3853 24.3221 27.632 24.7407C27.9453 25.2741 26.5093 29.2647 26.14 30.1647ZM36.312 35.0181C36.0627 35.1487 35.8333 35.2301 35.728 35.1674C35.6493 35.1207 35.8307 34.9487 35.8307 34.9487C35.8307 34.9487 37.1027 33.5794 37.604 32.9567C37.896 32.5941 38.2333 32.1634 38.6013 31.6834C38.604 31.7314 38.6053 31.7794 38.6053 31.8261C38.6027 33.4661 37.0187 34.5727 36.312 35.0181ZM44.148 33.2314C43.9613 33.0994 43.9933 32.6714 44.6053 31.3367C44.8453 30.8127 45.3947 29.9314 46.3467 29.0887C46.4573 29.4354 46.524 29.7674 46.5227 30.0767C46.5107 32.1407 45.0387 32.9114 44.148 33.2314Z" fill="#F06292"/>
<path d="M53.156 25.2754C51.1053 25.2861 49.3293 25.7781 47.8413 26.5127C47.2973 25.4261 46.7453 24.4701 46.6533 23.7594C46.5453 22.9301 46.42 22.4341 46.5507 21.4461C46.6813 20.4581 47.2533 19.0581 47.2453 18.9527C47.2373 18.8474 47.1173 18.3447 45.9347 18.3354C44.752 18.3274 43.74 18.5634 43.6213 18.8754C43.5027 19.1874 43.2747 19.8901 43.1333 20.6234C42.9267 21.6954 40.772 25.5207 39.5493 27.5207C39.1493 26.7394 38.8093 26.0514 38.7387 25.5074C38.6307 24.6781 38.5053 24.1821 38.636 23.1941C38.7667 22.2061 39.3387 20.8061 39.3307 20.7007C39.3227 20.5954 39.2027 20.0927 38.02 20.0834C36.8373 20.0754 35.8253 20.3114 35.7067 20.6234C35.588 20.9354 35.46 21.6647 35.2187 22.3714C34.976 23.0767 32.1133 29.4567 31.3627 31.1114C30.98 31.9541 30.648 32.6314 30.4133 33.0927L30.412 33.0901C30.412 33.0901 30.3973 33.1207 30.3733 33.1727C30.172 33.5661 30.0533 33.7834 30.0533 33.7834C30.0533 33.7834 30.0547 33.7861 30.0573 33.7914C29.8973 34.0807 29.7267 34.3487 29.6427 34.3487C29.584 34.3487 29.4653 33.5794 29.668 32.5234C30.0947 30.3101 31.1173 26.8594 31.108 26.7394C31.1027 26.6781 31.2987 26.0767 30.44 25.7621C29.6053 25.4567 29.308 25.9661 29.232 25.9674C29.1587 25.9687 29.104 26.1474 29.104 26.1474C29.104 26.1474 30.0333 22.2661 27.3307 22.2661C25.64 22.2661 23.2987 24.1154 22.1453 25.7914C21.4173 26.1887 19.8587 27.0394 18.2067 27.9474C17.572 28.2967 16.924 28.6527 16.3093 28.9914C16.268 28.9447 16.2253 28.8994 16.1827 28.8527C12.904 25.3554 6.84535 22.8821 7.10135 18.1794C7.19468 16.4701 7.78935 11.9687 18.7453 6.51006C27.72 2.03806 34.9053 3.26872 36.1467 5.99539C37.92 9.89272 32.3067 17.1341 22.9867 18.1794C19.436 18.5781 17.5653 17.2007 17.1 16.6887C16.6107 16.1487 16.5373 16.1247 16.3547 16.2261C16.0573 16.3914 16.2453 16.8674 16.3547 17.1514C16.6333 17.8754 17.7747 19.1594 19.7213 19.7994C21.4347 20.3621 25.604 20.6701 30.6453 18.7194C36.2933 16.5354 40.7027 10.4581 39.4067 5.37939C38.0893 0.214056 29.524 -1.48461 21.4173 1.39539C16.5867 3.11006 11.364 5.80072 7.60801 9.31272C3.14268 13.4887 2.43068 17.1247 2.72401 18.6434C3.76668 24.0407 11.2053 27.5554 14.184 30.1594C14.0373 30.2407 13.8987 30.3167 13.7733 30.3861C12.28 31.1247 6.60935 34.0927 5.19068 37.2274C3.58135 40.7834 5.44668 43.3354 6.68135 43.6794C10.5067 44.7434 14.432 42.8287 16.5427 39.6821C18.652 36.5367 18.3947 32.4394 17.4267 30.5701C17.4147 30.5474 17.4013 30.5247 17.3893 30.5007C17.7747 30.2727 18.168 30.0407 18.5573 29.8114C19.3173 29.3647 20.064 28.9487 20.7107 28.5967C20.348 29.5887 20.0827 30.7794 19.9453 32.4981C19.7827 34.5167 20.6107 37.1261 21.6933 38.1527C22.1707 38.6047 22.744 38.6154 23.1067 38.6154C24.3667 38.6154 24.9413 37.5674 25.5747 36.3274C26.3507 34.8074 27.04 33.0367 27.04 33.0367C27.04 33.0367 26.176 37.8181 28.5307 37.8181C29.3893 37.8181 30.252 36.7047 30.6373 36.1381C30.6387 36.1447 30.6387 36.1474 30.6387 36.1474C30.6387 36.1474 30.6613 36.1101 30.7053 36.0367C30.7947 35.9007 30.8453 35.8141 30.8453 35.8141C30.8453 35.8141 30.8467 35.8047 30.8493 35.7887C31.1947 35.1901 31.96 33.8247 33.1067 31.5727C34.5893 28.6634 36.0107 25.0181 36.0107 25.0181C36.0107 25.0181 36.1427 25.9087 36.576 27.3834C36.8307 28.2501 37.372 29.2087 37.8 30.1287C37.456 30.6061 37.2453 30.8794 37.2453 30.8794C37.2453 30.8794 37.2467 30.8847 37.2507 30.8941C36.976 31.2594 36.668 31.6527 36.3453 32.0367C35.1747 33.4301 33.7813 35.0221 33.5947 35.4807C33.3747 36.0221 33.4267 36.4194 33.852 36.7407C34.1627 36.9741 34.7147 37.0114 35.292 36.9727C36.344 36.9021 37.0827 36.6407 37.448 36.4821C38.0173 36.2807 38.68 35.9647 39.3013 35.5074C40.4493 34.6634 41.1413 33.4567 41.0747 31.8567C41.0373 30.9754 40.7573 30.1021 40.4013 29.2781C40.5053 29.1287 40.6093 28.9767 40.7147 28.8247C42.524 26.1794 43.928 23.2727 43.928 23.2727C43.928 23.2727 44.06 24.1634 44.4933 25.6381C44.712 26.3834 45.1453 27.1981 45.5347 27.9954C43.8333 29.3781 42.7787 30.9847 42.412 32.0381C41.7347 33.9874 42.2653 34.8701 43.26 35.0714C43.7107 35.1621 44.348 34.9554 44.8267 34.7527C45.4227 34.5554 46.1387 34.2261 46.808 33.7341C47.956 32.8901 49.06 31.7087 48.9933 30.1101C48.9627 29.3821 48.7653 28.6594 48.4973 27.9661C49.94 27.3647 51.8067 27.0314 54.1853 27.3087C59.288 27.9047 60.288 31.0901 60.0973 32.4234C59.9053 33.7567 58.836 34.4901 58.4773 34.7114C58.12 34.9327 58.0107 35.0101 58.04 35.1741C58.084 35.4127 58.2493 35.4047 58.5547 35.3527C58.9747 35.2821 61.2333 34.2687 61.3307 31.8074C61.452 28.6794 58.4587 25.2474 53.156 25.2754ZM13.8267 38.5341C12.136 40.3781 9.77601 41.0741 8.76268 40.4874C7.66935 39.8541 8.10268 37.1394 10.176 35.1821C11.44 33.9901 13.072 32.8914 14.1547 32.2154C14.4013 32.0674 14.7627 31.8501 15.2027 31.5861C15.276 31.5447 15.3173 31.5221 15.3173 31.5221L15.316 31.5194C15.4013 31.4687 15.488 31.4167 15.5773 31.3621C16.3333 34.1474 15.6013 36.5994 13.8267 38.5341ZM26.14 30.1647C25.552 31.5994 24.32 35.2714 23.5693 35.0741C22.9253 34.9047 22.5333 32.1141 23.4413 29.3674C23.8973 27.9847 24.8733 26.3327 25.4467 25.6914C26.3693 24.6594 27.3853 24.3221 27.632 24.7407C27.9453 25.2741 26.5093 29.2647 26.14 30.1647ZM36.312 35.0181C36.0627 35.1487 35.8333 35.2301 35.728 35.1674C35.6493 35.1207 35.8307 34.9487 35.8307 34.9487C35.8307 34.9487 37.1027 33.5794 37.604 32.9567C37.896 32.5941 38.2333 32.1634 38.6013 31.6834C38.604 31.7314 38.6053 31.7794 38.6053 31.8261C38.6027 33.4661 37.0187 34.5727 36.312 35.0181ZM44.148 33.2314C43.9613 33.0994 43.9933 32.6714 44.6053 31.3367C44.8453 30.8127 45.3947 29.9314 46.3467 29.0887C46.4573 29.4354 46.524 29.7674 46.5227 30.0767C46.5107 32.1407 45.0387 32.9114 44.148 33.2314Z" stroke="black" stroke-width="2" mask="url(#path-1-inside-1_316_321)"/>
</g>
<defs>
<filter id="filter0_d_316_321" x="-1.3335" y="0" width="66.6677" height="51.9752" filterUnits="userSpaceOnUse" color-interpolation-filters="sRGB">
<feFlood flood-opacity="0" result="BackgroundImageFix"/>
<feColorMatrix in="SourceAlpha" type="matrix" values="0 0 0 0 0 0 0 0 0 0 0 0 0 0 0 0 0 0 127 0" result="hardAlpha"/>
<feOffset dy="4"/>
<feGaussianBlur stdDeviation="2"/>
<feComposite in2="hardAlpha" operator="out"/>
<feColorMatrix type="matrix" values="0 0 0 0 0 0 0 0 0 0 0 0 0 0 0 0 0 0 0.25 0"/>
<feBlend mode="normal" in2="BackgroundImageFix" result="effect1_dropShadow_316_321"/>
<feBlend mode="normal" in="SourceGraphic" in2="effect1_dropShadow_316_321" result="shape"/>
</filter>
</defs>
</svg>
